# xmcd
#
# Track frame offsets:
#	150
#	4244
#	21054
#	34317
#	55216
#	57252
#	78188
#	82275
#	113612
#	130411
#	135360
#	153365
#	158024
#	169664
#	187925
#	204975
#	208042
#
# Disc length: 3136 seconds
#
# Revision: 1
# Processed by: cddbd v1.5PL3 Copyright (c) Steve Scherf et al.
# Submitted via: EasyCDDAExtractor 5.0.6
#
DISCID=d70c3e11
DTITLE=Various Artist - Trova Prosa Viola Vol. 2
DYEAR=2003
DGENRE=Sertanejo
TTITLE0=Hamilton Carneiro - Primeira Cria
TTITLE1=André e Andrade - Suspiro
TTITLE2=Geraldinho - Causo do Porquinho (cicatriz no Nariz)
TTITLE3=André e Andrade - O Rádio
TTITLE4=Hamilton Carneiro - Mãe
TTITLE5=Geraldinho - O Causo do Rádio
TTITLE6=Geraldinho - Moda do Carro de Boi
TTITLE7=Geraldinho - Causo do Carro de Boi (carreiro)
TTITLE8=André e Andrade - Rosa e Joaquim
TTITLE9=Hamilton Carneiro - Os Namorados
TTITLE10=Geraldinho - Casalzinho Novo
TTITLE11=Hamilton Carneiro - Soldado
TTITLE12=André e Andrade - O Soldado Estorvado
TTITLE13=Geraldinho - O Causo do Soldado
TTITLE14=André e Andrade - Peãozinho
TTITLE15=Hamilton Carneiro - Peão Cagão
TTITLE16=Geraldinho - O Causo do Peãozinho Novo
EXTD=
EXTT0=
EXTT1=
EXTT2=
EXTT3=
EXTT4=
EXTT5=
EXTT6=
EXTT7=
EXTT8=
EXTT9=
EXTT10=
EXTT11=
EXTT12=
EXTT13=
EXTT14=
EXTT15=
EXTT16=
PLAYORDER=
